<?xml version="1.0" encoding="utf-8"?>
<!-- Generator: Adobe Illustrator 24.1.0, SVG Export Plug-In . SVG Version: 6.00 Build 0)  -->
<svg version="1.0" id="Layer_1" xmlns="http://www.w3.org/2000/svg" xmlns:xlink="http://www.w3.org/1999/xlink" x="0px" y="0px"
	 viewBox="0 0 2000 2000" style="enable-background:new 0 0 2000 2000;" xml:space="preserve">
<g>
	<path d="M992.4,1078"/>
	<path d="M948.8,1076c-11.4-0.5-22.8-0.8-34.1-2.1c-14.1-1.7-23.4-11.3-31.3-22.1c-11-15.2-22.2-30.3-32.1-46.2
		c-10.5-16.7-19.8-34.2-29.2-51.5c-4.9-9-1.4-14.1,9-13.9c9.1,0.1,18.2,0.4,27.3,1c6.8,0.5,14.3,5,13.4,14.5
		c-1.1,11.8,7,17.2,14.2,23.2c2.3,1.9,6.5,2.2,9.8,2.1c10.5-0.3,17.4,5.7,23.9,12.7c4.6,4.9,6.7,10.6,6.3,17.5
		c-0.5,7.9,8.7,19.3,16.5,20.9c3.8,0.8,8,0.2,11.7,1.4c4.4,1.4,8.5,4.1,12.7,6.2c2,1,4.6,2.9,5.9-0.2c0.8-1.8,0.1-4.6-0.8-6.5
		c-1.7-3.6-4.2-6.9-6.2-10.4c-0.7-1.2-0.8-2.8-0.9-4.2c-0.2-9.1-10.7-22.8-19.5-24.9c-3.5-0.8-7.3-0.3-10.7-1.4
		c-3.7-1.2-7.4-3.1-10.6-5.4c-3.1-2.2-5.5-5.3-8.2-8c-3.3-3.4-5-7.4-5.2-12.3c-0.2-3.4-1-7.3-3-10c-6.9-9.3-14.8-17.1-28-16.4
		c-7.3,0.4-11.8-6.7-10.5-13.9c1-5.8,1.2-11.8,1.5-17.7c0.5-7.5,5.4-11.3,12.3-8.2c12.8,5.8,25.6,11.7,37.8,18.6
		c18.9,10.6,37.6,21.7,55.8,33.5c8,5.2,16.3,8.7,25.5,8.5c7.5-0.2,14.9-1.6,21.8-6c9.4-5.9,19.4-10.8,29.5-15.5
		c21.7-10.1,43.6-19.9,65.5-29.6c3.1-1.4,6.6-2.4,9.9-2.3c5.1,0.2,9.1,5.3,9,11.1c-0.1,7.6-0.4,15.2-1,22.8
		c-0.5,6-8.3,10.6-15.3,8.6c-5.2-1.4-9.7-1-13.9,2.3c-3.1,2.4-6.3,4.7-9.4,7.1c-5.6,4.2-5.2,11-7.4,16.7c-1.4,3.5-3.2,7.1-5.6,10
		c-2.5,3-5.8,5.4-8.8,7.9c-5.4,4.4-11.7,4.5-18.2,4.3c-2.6-0.1-5.6-0.2-7.7,1c-5,3-10.2,6.2-14.1,10.4c-2.5,2.7-3.4,7.2-4.2,11.1
		c-1.2,5.7-3.2,10.6-7.7,14.4c-1.1,0.9-2.1,2.3-2.3,3.7c-0.2,1.2,0.2,3.1,1,3.9c0.8,0.8,2.7,1.1,3.8,0.8c2.3-0.8,4.2-2.4,6.5-3.3
		c3.7-1.5,7.7-4.1,11.3-3.8c9.3,0.8,15.8-3.4,22.6-8.9c5.3-4.4,7.8-8.9,7.9-15.9c0.1-3.6,2.9-7.5,5.4-10.5c2.3-2.8,5.9-4.6,8.9-6.9
		c5.9-4.6,12.4-7.2,20.1-6.1c5.3,0.7,9.5-1.8,13.2-5.3c1.5-1.5,3.2-2.8,5-4c5.3-3.8,8.1-9.1,8.1-15.5c-0.1-9.1,7.3-12.7,14.4-12.1
		c7.6,0.6,15.2,0.6,22.8,1.1c2.5,0.2,5.2,0.9,7.5,1.9c4.4,2,5.9,6.4,3.3,10.2c-11.7,17.1-23.7,34-35.6,51c-3.1,4.4-6.3,8.8-9.9,12.8
		c-4.6,5.3-9.5,10.3-14.4,15.4c-8.3,8.7-16.2,17.9-25.2,25.8c-4.7,4.1-11.2,6.9-17.4,8.5c-7.7,2-15.9,2.2-23.8,3.2"/>
</g>
</svg>
